<?xml version="1.0" standalone="no"?><!DOCTYPE svg PUBLIC "-//W3C//DTD SVG 1.1//EN" "http://www.w3.org/Graphics/SVG/1.1/DTD/svg11.dtd"><svg t="1770618261795" class="icon" viewBox="0 0 1024 1024" version="1.1" xmlns="http://www.w3.org/2000/svg" p-id="4965" xmlns:xlink="http://www.w3.org/1999/xlink" width="128" height="128"><path d="M396.205229 627.804493c17.667382 17.666358 26.479071 38.671765 26.479071 62.903655 0 24.733311-8.724709 45.736671-26.195615 63.207577-17.361413 17.362436-38.47529 26.108634-63.099107 26.108634-24.733311 0-45.824675-8.746198-63.208601-26.108634-17.469883-17.469883-26.194592-38.474266-26.194592-63.207577s8.723685-45.824675 26.194592-63.187111c17.382902-17.492396 38.47529-26.216081 63.208601-26.216081C357.622492 601.304955 378.537847 610.138134 396.205229 627.804493zM500.025783 524.07092c-31.103392-31.101345-68.006883-55.726186-110.691031-74.003458-42.792619-18.23327-87.548962-27.371394-134.442992-27.371394-3.25002 0-5.888104 0.981351-7.851828 2.944052-2.071172 2.070148-3.052522 4.623297-3.052522 7.850805l0 75.858712c0 3.14155 0.981351 5.802146 3.052522 7.764847 1.963725 2.050706 4.601808 3.032056 7.851828 3.032056 68.879764 0 127.659495 24.231891 176.25426 72.826656 48.463782 48.464805 72.695672 107.267049 72.695672 176.25426 0 3.227508 1.089821 5.779633 3.053546 7.742335 2.049682 2.050706 4.601808 3.053546 7.851828 3.053546l75.749218 0c3.25002 0 5.801123-1.00284 7.851828-3.053546 1.962701-1.962701 3.052522-4.514827 3.052522-7.742335 0-46.916543-9.138124-91.75782-27.39493-134.464481C555.773458 591.990822 531.040147 555.088354 500.025783 524.07092zM518.563998 314.446645c-80.46052-47.0025-168.292937-70.448492-263.388782-70.448492-3.337002 0-5.976108 1.088798-8.04728 3.139503-2.072195 2.050706-3.140527 4.711302-3.140527 8.048303l0 78.104869c0 3.357468 1.068332 6.083555 3.140527 8.156774 2.071172 2.050706 4.711302 3.053546 8.04728 3.053546 57.515948 0 112.457258 11.166317 165.06543 33.545 52.499701 22.269189 97.647971 52.41272 135.532813 90.189092 37.864376 37.883819 67.898413 83.120093 90.276073 135.620817 22.290679 52.498678 33.456996 107.549481 33.456996 164.978449 0 3.335978 1.090844 5.976108 3.140527 8.134261 2.072195 2.050706 4.711302 3.053546 8.048303 3.053546l78.127382 0c3.337002 0 6.084579-1.00284 8.135284-3.053546 2.071172-2.158153 3.052522-4.798283 3.052522-8.134261 0-95.097892-23.468504-182.930309-70.362534-263.301801C662.647557 425.049672 598.937536 361.363188 518.563998 314.446645zM958.70846 243.998153l0 536.025183c0 98.715279-79.980589 178.696892-178.696892 178.696892L243.987409 958.720228c-98.629321 0-178.696892-79.981612-178.696892-178.696892L65.290517 243.998153c0-98.629321 80.06757-178.718381 178.696892-178.718381l536.02416 0C878.727871 65.279772 958.70846 145.368832 958.70846 243.998153zM869.414761 288.643979c0-74.003458-60.067051-133.941572-134.050042-133.941572L288.634258 154.702408c-73.982992 0-133.941572 59.937091-133.941572 133.941572l0 446.709995c0 74.005504 59.95858 133.963061 133.941572 133.963061l446.731484 0c73.982992 0 134.050042-59.957557 134.050042-133.963061L869.415784 288.643979z" p-id="4966" fill="#1296db"></path></svg>